<svg width="69" height="73" viewBox="0 0 69 73" fill="none" xmlns="http://www.w3.org/2000/svg">
<circle cx="34.5" cy="38.5" r="32" fill="#C4C4C4" stroke="black" stroke-width="5"/>
<path d="M32.5795 30.33C32.5515 30.358 32.5375 30.414 32.5375 30.498V32.346C32.5375 32.598 32.5655 32.976 32.6215 33.48L32.5795 35.454V36.042C32.5235 36.882 32.4955 37.498 32.4955 37.89L32.5375 39.654C32.5655 39.794 32.5655 39.976 32.5375 40.2C32.5375 40.424 32.5375 40.592 32.5375 40.704V42.006L32.4115 43.308V46.206V47.718V50.616C32.4675 51.176 32.4955 51.624 32.4955 51.96V54.018V54.396C32.4395 55.124 32.4115 55.656 32.4115 55.992C32.4115 56.3 32.4255 56.524 32.4535 56.664L32.6215 56.706L32.4955 56.958C32.5795 57.014 32.6355 57.014 32.6635 56.958C32.6915 56.874 32.7055 56.818 32.7055 56.79C32.7615 56.818 32.8315 56.832 32.9155 56.832L33.0415 57.042C33.1255 57.014 33.2095 56.986 33.2935 56.958C33.3775 56.93 33.4755 56.902 33.5875 56.874L33.6715 57.042C33.7275 57.098 33.7695 57.126 33.7975 57.126L34.0915 57.084L34.1335 57.126L34.2595 56.916C34.2875 56.916 34.3015 56.93 34.3015 56.958C34.3855 57.154 34.4835 57.168 34.5955 57C34.6235 56.972 34.6795 56.958 34.7635 56.958H34.9735C35.1695 56.958 35.3375 56.972 35.4775 57L35.5615 56.832C35.6175 56.972 35.7295 57.014 35.8975 56.958H36.4435L36.4855 56.706C36.5415 55.922 36.5695 55.306 36.5695 54.858V52.842V51.162C36.5695 50.966 36.5555 50.784 36.5275 50.616C36.4995 50.448 36.4855 50.266 36.4855 50.07V48.6C36.5135 48.348 36.5135 48.138 36.4855 47.97C36.4855 47.774 36.4855 47.62 36.4855 47.508H36.4435V47.634H36.3595V45.534V44.064V41.838L36.4015 41.796V41.964H36.4435V41.082H36.4015V41.376C36.3455 40.928 36.3175 40.578 36.3175 40.326V37.638C36.3175 37.526 36.3175 37.386 36.3175 37.218C36.3455 37.022 36.3455 36.798 36.3175 36.546C36.3175 36.154 36.3035 35.846 36.2755 35.622L36.2335 34.74V33.018C36.2615 32.85 36.2615 32.71 36.2335 32.598C36.2335 32.486 36.2335 32.388 36.2335 32.304C36.2895 32.304 36.3455 32.332 36.4015 32.388L36.3175 31.38C36.3175 31.268 36.3315 31.184 36.3595 31.128V30.75C36.3595 30.722 36.3595 30.694 36.3595 30.666C36.3875 30.61 36.3875 30.568 36.3595 30.54C36.3315 30.512 36.1775 30.316 35.8975 29.952C35.8975 29.924 35.8695 29.91 35.8135 29.91L35.7295 30.078L35.4775 29.784C35.1695 29.784 34.9735 29.896 34.8895 30.12L34.7215 30.078C34.5815 30.078 34.4415 30.106 34.3015 30.162C34.1895 30.218 34.1055 30.26 34.0495 30.288C34.0215 30.204 33.9795 30.162 33.9235 30.162C33.8955 30.162 33.8535 30.19 33.7975 30.246L33.7555 30.12C33.6995 30.12 33.6155 30.148 33.5035 30.204C33.4195 30.26 33.3495 30.232 33.2935 30.12C33.2935 30.12 33.2655 30.12 33.2095 30.12H32.9575L32.6215 30.33H32.5795ZM33.6715 39.108C33.6715 39.108 33.6575 39.122 33.6295 39.15C33.6015 38.982 33.5875 38.716 33.5875 38.352L33.6295 37.134C33.6855 36.322 33.6995 35.72 33.6715 35.328C33.7275 35.44 33.7555 35.58 33.7555 35.748C33.7555 35.916 33.7555 36.056 33.7555 36.168C33.7555 36.364 33.7835 36.658 33.8395 37.05C33.7835 34.25 33.7555 32.122 33.7555 30.666C33.8115 30.722 33.8395 30.75 33.8395 30.75L33.8815 31.674C33.9095 31.982 33.9095 32.262 33.8815 32.514C33.8815 32.738 33.8815 32.934 33.8815 33.102V34.194C33.8815 34.194 33.9235 34.152 34.0075 34.068L34.0495 34.866H34.0915C34.1195 34.67 34.1335 34.362 34.1335 33.942V35.328H34.0915L34.0495 35.202C34.1615 36.126 34.2315 36.784 34.2595 37.176H34.3435V36.546C34.2875 36.266 34.2595 36.056 34.2595 35.916V34.026V33.48V33.438C34.1755 33.354 34.1335 33.284 34.1335 33.228C34.1335 33.172 34.1615 33.102 34.2175 33.018C34.2735 32.906 34.3155 32.808 34.3435 32.724C34.4835 32.864 34.5535 33.088 34.5535 33.396V33.732C34.5535 33.984 34.5255 34.18 34.4695 34.32C34.4135 34.516 34.4135 34.656 34.4695 34.74C34.5255 34.824 34.5395 34.936 34.5115 35.076C34.5115 35.216 34.5255 35.314 34.5535 35.37C34.6095 35.482 34.6235 35.622 34.5955 35.79C34.5955 35.93 34.5955 36.028 34.5955 36.084L34.6375 41.418C34.6375 41.838 34.6095 42.44 34.5535 43.224L34.5115 44.106L34.5535 45.156L34.5115 49.734V51.792V52.128H34.4275C34.4275 51.792 34.4135 51.54 34.3855 51.372C34.3575 50.784 34.3435 49.93 34.3435 48.81V46.29V44.4L34.3015 43.98L34.2175 44.106H34.1755L34.2595 43.854C34.3155 43.714 34.3155 43.602 34.2595 43.518C34.2315 43.49 34.2175 43.406 34.2175 43.266C34.2735 42.202 34.3015 41.404 34.3015 40.872L34.2595 38.058C34.2595 37.918 34.2455 37.806 34.2175 37.722V38.982L34.1755 39.864C34.1755 40.228 34.1615 40.508 34.1335 40.704C34.0775 42.552 34.0495 43.952 34.0495 44.904C34.0215 45.212 34.0075 45.492 34.0075 45.744C34.0355 45.968 34.0495 46.164 34.0495 46.332V49.902C34.0495 49.958 34.0635 50 34.0915 50.028C34.1195 50.056 34.1335 50.084 34.1335 50.112C34.1895 50.224 34.2175 50.294 34.2175 50.322L34.2595 53.514H34.2175L34.1335 51.33H34.0915V51.792C34.0915 51.988 34.0635 52.226 34.0075 52.506C34.0075 52.562 34.0215 52.618 34.0495 52.674C34.0775 52.73 34.0915 52.772 34.0915 52.8C34.0915 52.856 34.0775 52.94 34.0495 53.052C34.0495 53.164 34.0635 53.304 34.0915 53.472V53.598C34.0915 53.766 34.0775 53.92 34.0495 54.06C34.0215 54.172 33.9935 54.27 33.9655 54.354C33.9095 53.878 33.8815 53.164 33.8815 52.212L33.7975 50.07C33.7975 49.566 33.7695 48.838 33.7135 47.886C33.7135 48.054 33.6995 48.25 33.6715 48.474C33.6715 48.67 33.6855 48.908 33.7135 49.188C33.7135 49.804 33.7275 50.252 33.7555 50.532L33.7975 51.876V52.296C33.7975 52.688 33.7555 52.982 33.6715 53.178H33.6295L33.5455 45.282H33.6295V45.366C33.7415 45.03 33.7975 44.806 33.7975 44.694L33.7135 44.358L33.6295 45.03C33.6295 45.03 33.6155 45.03 33.5875 45.03C33.5875 45.03 33.5875 45.044 33.5875 45.072L33.5455 44.946V44.778C33.5455 44.526 33.5735 44.344 33.6295 44.232C33.6575 44.176 33.6575 44.106 33.6295 44.022C33.6295 43.938 33.6295 43.868 33.6295 43.812C33.6015 43.7 33.5875 43.532 33.5875 43.308C33.5875 43.056 33.6155 42.678 33.6715 42.174C33.6995 41.922 33.7135 41.544 33.7135 41.04C33.7135 40.928 33.6995 40.802 33.6715 40.662C33.6435 40.522 33.6295 40.382 33.6295 40.242C33.6295 40.158 33.6435 40.074 33.6715 39.99C33.6995 39.906 33.7135 39.808 33.7135 39.696L33.6715 39.108ZM33.4195 39.528C33.4195 40.144 33.3915 41.04 33.3355 42.216L33.2935 43.56L33.3355 46.962V49.608L33.3775 53.556L33.3355 53.64C33.2515 53.332 33.2095 52.884 33.2095 52.296V51.414C33.2095 51.022 33.1955 50.742 33.1675 50.574V50.532C33.1955 50.532 33.2095 50.56 33.2095 50.616H33.2515V50.028C33.2235 49.524 33.2095 48.768 33.2095 47.76V43.644C33.2095 43.056 33.2375 42.23 33.2935 41.166L33.2515 37.134C33.2235 36.322 33.2095 35.104 33.2095 33.48V32.598H33.2935V33.732L33.4195 39.528ZM32.9575 35.874C32.9855 36.014 32.9995 36.252 32.9995 36.588C33.0275 37.064 33.0415 37.806 33.0415 38.814V41.418C33.0135 41.866 32.9995 42.538 32.9995 43.434V46.29V47.718C32.9715 48.278 32.9855 49.132 33.0415 50.28C33.0415 50.616 33.0275 50.882 32.9995 51.078L32.9575 50.658L32.9155 45.744L32.8735 43.56C32.8735 42.916 32.8875 42.426 32.9155 42.09L32.9575 40.578L32.9155 37.89V36V35.874H32.9575ZM35.6035 56.076C35.6875 54.396 35.7295 51.89 35.7295 48.558V42.552V39.528V43.518C35.7295 43.994 35.7575 44.764 35.8135 45.828V52.674L35.6875 56.076H35.6035ZM34.9315 39.738L34.8475 34.53H34.9315L34.9735 39.738H34.9315ZM34.2175 47.088C34.2455 47.452 34.2315 47.942 34.1755 48.558L34.1335 49.566V47.088H34.2175ZM35.8555 41.544V38.814L35.8975 38.772V41.544H35.8555ZM35.6875 35.118V37.722H35.6455V35.118H35.6875ZM35.7715 34.53V32.64H35.8135V34.53H35.7715ZM35.8135 38.142V35.79H35.8555V38.142H35.8135ZM34.8475 48.516V49.986V48.516ZM33.3775 53.892V54.858H33.3355V53.892H33.3775ZM33.6295 33.186V31.548H33.6715V33.186H33.6295ZM33.2095 31.38V32.304H33.1675V31.38H33.2095ZM34.8055 40.452V41.67H34.7635V40.452H34.8055ZM32.6635 32.094V31.17H32.7055V32.094H32.6635ZM35.8555 55.11V54.438V55.11ZM34.5535 51.834V52.632V51.834ZM33.8395 37.428H33.7975V38.352H33.8395V37.428ZM33.7135 46.374H33.7555V45.576H33.7135V46.374ZM33.7135 47.424H33.7555V46.752L33.7135 46.71V47.424ZM33.7135 43.896H33.7555V43.014H33.7135V43.896Z" fill="black"/>
<path d="M31.2788 22.928C31.2361 23.9093 31.5774 24.6987 32.3028 25.296C33.0281 25.8933 33.8388 26.192 34.7348 26.192C35.4174 26.192 36.1001 25.8293 36.7828 25.104C37.4654 24.336 37.7854 23.5253 37.7428 22.672C37.6148 21.648 37.2308 20.88 36.5908 20.368C35.9934 19.8133 35.2254 19.5573 34.2868 19.6C33.3481 19.6427 32.6014 19.984 32.0468 20.624C31.4921 21.2213 31.2361 21.9893 31.2788 22.928ZM34.6068 23.376C34.4361 23.1627 34.4574 22.9493 34.6708 22.736L34.7988 23.376H33.9668C34.0094 23.4613 34.1588 23.5253 34.4148 23.568C34.7134 23.6107 34.9268 23.5893 35.0548 23.504C35.0121 23.6747 34.9054 23.8027 34.7348 23.888C34.6068 23.9733 34.4574 23.9947 34.2868 23.952C33.9454 23.8667 33.7534 23.7173 33.7108 23.504C33.7108 23.1627 33.8388 22.9067 34.0948 22.736C34.1801 22.6507 34.2228 22.608 34.2228 22.608C34.2654 22.5653 34.3508 22.544 34.4788 22.544L34.2868 22.928C34.2441 23.056 34.2441 23.1627 34.2868 23.248C34.3294 23.2907 34.4361 23.3333 34.6068 23.376ZM32.3028 21.776C32.3454 21.4773 32.6014 21.2 33.0708 20.944C33.5401 20.6453 33.9668 20.496 34.3508 20.496C33.3694 20.7093 32.6868 21.136 32.3028 21.776ZM35.1188 21.264C35.4174 21.3067 35.6734 21.5413 35.8868 21.968C36.1428 22.3947 36.2068 22.7573 36.0788 23.056C35.9508 22.5867 35.8441 22.2667 35.7588 22.096C35.7161 21.8827 35.5028 21.6053 35.1188 21.264ZM34.4788 22.096C34.6494 22.1387 34.7988 22.2453 34.9268 22.416C35.0974 22.544 35.2041 22.6933 35.2468 22.864C35.2468 22.992 35.1828 23.12 35.0548 23.248C35.1401 22.992 35.0548 22.8 34.7988 22.672L34.8628 22.544C34.8628 22.4587 34.7988 22.3733 34.6708 22.288C34.5428 22.2027 34.4788 22.1387 34.4788 22.096ZM33.9028 22.032C33.9454 21.9893 33.9881 21.968 34.0308 21.968C34.0734 21.968 34.0948 21.968 34.0948 21.968L34.2868 22.16L34.1588 22.288C33.9881 22.3733 33.8601 22.4587 33.7748 22.544C33.7748 22.5013 33.7534 22.48 33.7108 22.48L33.9028 22.032ZM34.3508 24.592C34.0948 24.592 33.7961 24.464 33.4548 24.208L34.5428 24.592H34.3508ZM33.5188 23.632C33.4761 23.5467 33.4548 23.44 33.4548 23.312C33.4548 23.056 33.5401 22.8427 33.7108 22.672L33.5188 23.632Z" fill="black"/>
</svg>
